<svg width="1024" height="1024" viewBox="0 0 1024 1024" fill="none" xmlns="http://www.w3.org/2000/svg">
<g clip-path="url(#clip0_10_42)">
<rect width="1024" height="1024" fill="url(#paint0_radial_10_42)"/>
<g filter="url(#filter0_dd_10_42)">
<mask id="path-1-inside-1_10_42" fill="white">
<path d="M165.835 752.411C159.839 746.114 159.567 736.292 165.206 729.673L165.483 729.355L388.96 479.675C349.043 389.567 365.57 280.506 438.544 206.095L440.278 204.344C536.555 108.067 692.419 107.69 789.162 203.216L790.297 204.344C886.952 300.999 886.953 457.708 790.299 554.363L789.306 555.351C704.787 638.938 575.046 649.24 479.379 586.257L400.162 657.16L468.763 725.761L469.117 726.134C472.664 730.059 472.546 736.12 468.763 739.903L437.472 771.194C433.567 775.099 427.234 775.099 423.329 771.194L352.213 700.078L337.516 713.233L410.402 786.12C414.308 790.025 414.308 796.357 410.402 800.263L379.112 831.553C375.207 835.458 368.876 835.458 364.971 831.553L289.567 756.149L273.584 770.455L346.826 843.696C350.731 847.601 350.731 853.934 346.826 857.839L315.535 889.13L315.162 889.484C311.363 892.917 305.565 892.917 301.766 889.484L301.393 889.13L205.071 792.808C204.077 791.813 203.338 790.661 202.85 789.433L166.13 752.713L165.835 752.411ZM496.042 263.15C432.537 328.286 433.04 432.571 497.555 497.086L499.087 498.599C563.711 561.605 666.869 561.605 731.491 498.6L733.023 497.088C798.044 432.066 798.045 326.643 733.022 261.62L731.49 260.107C666.354 196.601 562.068 197.105 497.554 261.619L496.042 263.15Z"/>
</mask>
<path d="M165.835 752.411C159.839 746.114 159.567 736.292 165.206 729.673L165.483 729.355L388.96 479.675C349.043 389.567 365.57 280.506 438.544 206.095L440.278 204.344C536.555 108.067 692.419 107.69 789.162 203.216L790.297 204.344C886.952 300.999 886.953 457.708 790.299 554.363L789.306 555.351C704.787 638.938 575.046 649.24 479.379 586.257L400.162 657.16L468.763 725.761L469.117 726.134C472.664 730.059 472.546 736.12 468.763 739.903L437.472 771.194C433.567 775.099 427.234 775.099 423.329 771.194L352.213 700.078L337.516 713.233L410.402 786.12C414.308 790.025 414.308 796.357 410.402 800.263L379.112 831.553C375.207 835.458 368.876 835.458 364.971 831.553L289.567 756.149L273.584 770.455L346.826 843.696C350.731 847.601 350.731 853.934 346.826 857.839L315.535 889.13L315.162 889.484C311.363 892.917 305.565 892.917 301.766 889.484L301.393 889.13L205.071 792.808C204.077 791.813 203.338 790.661 202.85 789.433L166.13 752.713L165.835 752.411ZM496.042 263.15C432.537 328.286 433.04 432.571 497.555 497.086L499.087 498.599C563.711 561.605 666.869 561.605 731.491 498.6L733.023 497.088C798.044 432.066 798.045 326.643 733.022 261.62L731.49 260.107C666.354 196.601 562.068 197.105 497.554 261.619L496.042 263.15Z" fill="black" fill-opacity="0.01" shape-rendering="crispEdges"/>
<path d="M165.835 752.411L114.42 801.375L114.737 801.708L115.059 802.037L165.835 752.411ZM165.206 729.673L111.743 682.954L111.45 683.288L111.162 683.626L165.206 729.673ZM165.483 729.355L112.58 682.004L112.298 682.319L112.02 682.637L165.483 729.355ZM388.96 479.675L441.864 527.026L472.452 492.852L453.876 450.918L388.96 479.675ZM438.544 206.095L388.101 156.13L387.976 156.256L387.852 156.382L438.544 206.095ZM440.278 204.344L390.074 154.139L389.954 154.259L389.835 154.379L440.278 204.344ZM789.162 203.216L839.215 152.86L839.131 152.777L839.048 152.694L789.162 203.216ZM790.297 204.344L840.501 154.139L840.426 154.063L840.35 153.988L790.297 204.344ZM790.299 554.363L840.355 604.716L840.429 604.642L840.504 604.568L790.299 554.363ZM789.306 555.351L839.231 605.832L839.297 605.768L839.362 605.703L789.306 555.351ZM479.379 586.257L518.421 526.955L472.761 496.894L432.027 533.353L479.379 586.257ZM400.162 657.16L352.81 604.256L296.896 654.303L349.958 707.365L400.162 657.16ZM468.763 725.761L520.231 676.852L519.607 676.196L518.967 675.556L468.763 725.761ZM469.117 726.134L521.799 678.536L521.201 677.873L520.586 677.225L469.117 726.134ZM468.763 739.903L518.967 790.108L518.97 790.106L468.763 739.903ZM437.472 771.194L487.675 821.4L487.676 821.399L437.472 771.194ZM423.329 771.194L373.125 821.399L373.125 821.4L423.329 771.194ZM352.213 700.078L402.418 649.874L354.916 602.372L304.86 647.175L352.213 700.078ZM337.516 713.233L290.163 660.33L234.25 710.377L287.311 763.438L337.516 713.233ZM410.402 786.12L460.607 735.916L460.607 735.916L410.402 786.12ZM410.402 800.263L360.198 750.058L410.402 800.263ZM379.112 831.553L429.317 881.758L429.317 881.757L379.112 831.553ZM364.971 831.553L314.766 881.757L314.768 881.759L364.971 831.553ZM289.567 756.149L339.772 705.945L292.271 658.444L242.216 703.245L289.567 756.149ZM273.584 770.455L226.233 717.551L170.317 767.598L223.38 820.66L273.584 770.455ZM346.826 843.696L397.032 793.492L397.03 793.491L346.826 843.696ZM346.826 857.839L397.031 908.043L397.033 908.041L346.826 857.839ZM315.535 889.13L364.444 940.598L365.1 939.975L365.74 939.334L315.535 889.13ZM315.162 889.484L362.761 942.166L363.423 941.568L364.07 940.953L315.162 889.484ZM301.766 889.484L252.857 940.953L253.505 941.568L254.167 942.166L301.766 889.484ZM301.393 889.13L251.188 939.334L251.828 939.974L252.484 940.598L301.393 889.13ZM205.071 792.808L154.865 843.011L154.867 843.012L205.071 792.808ZM202.85 789.433L268.835 763.224L263.423 749.596L253.054 739.228L202.85 789.433ZM166.13 752.713L115.354 802.339L115.638 802.63L115.925 802.917L166.13 752.713ZM496.042 263.15L445.516 213.269L445.36 213.427L445.206 213.586L496.042 263.15ZM497.555 497.086L447.35 547.29L447.511 547.451L447.673 547.611L497.555 497.086ZM499.087 498.599L449.205 549.124L449.363 549.28L449.522 549.435L499.087 498.599ZM731.491 498.6L781.056 549.436L781.215 549.281L781.373 549.125L731.491 498.6ZM733.023 497.088L782.904 547.614L783.066 547.454L783.227 547.292L733.023 497.088ZM733.022 261.62L783.226 211.416L783.073 211.262L782.919 211.11L733.022 261.62ZM731.49 260.107L781.388 209.598L781.222 209.434L781.055 209.271L731.49 260.107ZM497.554 261.619L447.349 211.414L447.188 211.576L447.028 211.738L497.554 261.619ZM165.835 752.411L217.25 703.447C236.326 723.478 237.188 754.666 219.25 775.719L165.206 729.673L111.162 683.626C81.9462 717.917 83.3513 768.751 114.42 801.375L165.835 752.411ZM165.206 729.673L218.67 776.392L218.947 776.074L165.483 729.355L112.02 682.637L111.743 682.954L165.206 729.673ZM165.483 729.355L218.387 776.707L441.864 527.026L388.96 479.675L336.056 432.323L112.58 682.004L165.483 729.355ZM388.96 479.675L453.876 450.918C425.359 386.544 437.288 308.779 489.236 255.807L438.544 206.095L387.852 156.382C293.853 252.234 272.727 392.59 324.044 508.432L388.96 479.675ZM438.544 206.095L488.987 256.06L490.721 254.309L440.278 204.344L389.835 154.379L388.101 156.13L438.544 206.095ZM440.278 204.344L490.483 254.548C559.139 185.892 670.293 185.622 739.277 253.737L789.162 203.216L839.048 152.694C714.545 29.7586 513.972 30.2413 390.074 154.139L440.278 204.344ZM789.162 203.216L739.109 253.572L740.244 254.7L790.297 204.344L840.35 153.988L839.215 152.86L789.162 203.216ZM790.297 204.344L740.092 254.548C809.021 323.477 809.021 435.232 740.094 504.159L790.299 554.363L840.504 604.568C964.886 480.185 964.883 278.521 840.501 154.139L790.297 204.344ZM790.299 554.363L740.243 504.01L739.25 504.998L789.306 555.351L839.362 605.703L840.355 604.716L790.299 554.363ZM789.306 555.351L739.38 504.869C679.174 564.412 586.619 571.854 518.421 526.955L479.379 586.257L440.337 645.559C563.472 726.626 730.4 713.465 839.231 605.832L789.306 555.351ZM479.379 586.257L432.027 533.353L352.81 604.256L400.162 657.16L447.514 710.064L526.731 639.161L479.379 586.257ZM400.162 657.16L349.958 707.365L418.558 775.965L468.763 725.761L518.967 675.556L450.367 606.956L400.162 657.16ZM468.763 725.761L417.295 774.669L417.649 775.042L469.117 726.134L520.586 677.225L520.231 676.852L468.763 725.761ZM469.117 726.134L416.435 773.732C394.76 749.742 395.466 712.793 418.556 689.701L468.763 739.903L518.97 790.106C549.626 759.447 550.567 710.376 521.799 678.536L469.117 726.134ZM468.763 739.903L418.558 689.699L387.267 720.99L437.472 771.194L487.676 821.399L518.967 790.108L468.763 739.903ZM437.472 771.194L387.268 720.989C411.09 697.168 449.711 697.168 473.533 720.989L423.329 771.194L373.125 821.4C404.758 853.031 456.043 853.031 487.675 821.4L437.472 771.194ZM423.329 771.194L473.534 720.99L402.418 649.874L352.213 700.078L302.008 750.283L373.125 821.399L423.329 771.194ZM352.213 700.078L304.86 647.175L290.163 660.33L337.516 713.233L384.868 766.136L399.566 752.981L352.213 700.078ZM337.516 713.233L287.311 763.438L360.198 836.325L410.402 786.12L460.607 735.916L387.72 663.029L337.516 713.233ZM410.402 786.12L360.198 836.325C336.376 812.503 336.376 773.88 360.198 750.058L410.402 800.263L460.607 850.467C492.24 818.835 492.239 767.548 460.607 735.916L410.402 786.12ZM410.402 800.263L360.198 750.058L328.908 781.348L379.112 831.553L429.317 881.757L460.607 850.467L410.402 800.263ZM379.112 831.553L328.908 781.348C352.732 757.525 391.354 757.528 415.174 781.346L364.971 831.553L314.768 881.759C346.399 913.387 397.683 913.391 429.317 881.758L379.112 831.553ZM364.971 831.553L415.175 781.348L339.772 705.945L289.567 756.149L239.363 806.354L314.766 881.757L364.971 831.553ZM289.567 756.149L242.216 703.245L226.233 717.551L273.584 770.455L320.935 823.359L336.919 809.054L289.567 756.149ZM273.584 770.455L223.38 820.66L296.622 893.901L346.826 843.696L397.03 793.491L323.788 720.25L273.584 770.455ZM346.826 843.696L296.621 893.9C272.799 870.077 272.801 831.457 296.62 807.636L346.826 857.839L397.033 908.041C428.661 876.411 428.664 825.126 397.032 793.492L346.826 843.696ZM346.826 857.839L296.622 807.634L265.331 838.925L315.535 889.13L365.74 939.334L397.031 908.043L346.826 857.839ZM315.535 889.13L266.627 837.662L266.254 838.016L315.162 889.484L364.07 940.953L364.444 940.598L315.535 889.13ZM315.162 889.484L267.564 836.802C290.797 815.811 326.13 815.811 349.364 836.802L301.766 889.484L254.167 942.166C284.999 970.023 331.929 970.023 362.761 942.166L315.162 889.484ZM301.766 889.484L350.674 838.016L350.301 837.662L301.393 889.13L252.484 940.598L252.857 940.953L301.766 889.484ZM301.393 889.13L351.597 838.926L255.276 742.603L205.071 792.808L154.867 843.012L251.188 939.334L301.393 889.13ZM205.071 792.808L255.278 742.605C261.291 748.618 265.841 755.686 268.835 763.224L202.85 789.433L136.864 815.641C140.834 825.636 146.864 835.009 154.865 843.011L205.071 792.808ZM202.85 789.433L253.054 739.228L216.335 702.508L166.13 752.713L115.925 802.917L152.645 839.637L202.85 789.433ZM166.13 752.713L216.906 703.087L216.611 702.785L165.835 752.411L115.059 802.037L115.354 802.339L166.13 752.713ZM496.042 263.15L445.206 213.586C354.606 306.511 355.322 455.261 447.35 547.29L497.555 497.086L547.76 446.882C510.759 409.88 510.468 350.06 546.879 312.715L496.042 263.15ZM497.555 497.086L447.673 547.611L449.205 549.124L499.087 498.599L548.968 448.073L547.436 446.56L497.555 497.086ZM499.087 498.599L449.522 549.435C541.721 639.326 688.859 639.326 781.056 549.436L731.491 498.6L681.927 447.763C644.879 483.884 585.701 483.884 548.651 447.762L499.087 498.599ZM731.491 498.6L781.373 549.125L782.904 547.614L733.023 497.088L683.141 446.562L681.61 448.074L731.491 498.6ZM733.023 497.088L783.227 547.292C875.976 454.543 875.976 304.166 783.226 211.416L733.022 261.62L682.817 311.825C720.113 349.121 720.112 409.589 682.818 446.883L733.023 497.088ZM733.022 261.62L782.919 211.11L781.388 209.598L731.49 260.107L681.593 310.617L683.124 312.13L733.022 261.62ZM731.49 260.107L781.055 209.271C688.129 118.67 539.377 119.387 447.349 211.414L497.554 261.619L547.758 311.824C584.758 274.824 644.579 274.531 681.926 310.944L731.49 260.107ZM497.554 261.619L447.028 211.738L445.516 213.269L496.042 263.15L546.568 313.032L548.08 311.5L497.554 261.619Z" fill="#783DD8" mask="url(#path-1-inside-1_10_42)"/>
</g>
</g>
<defs>
<filter id="filter0_dd_10_42" x="17.1506" y="-12.1472" width="989.638" height="1048.21" filterUnits="userSpaceOnUse" color-interpolation-filters="sRGB">
<feFlood flood-opacity="0" result="BackgroundImageFix"/>
<feColorMatrix in="SourceAlpha" type="matrix" values="0 0 0 0 0 0 0 0 0 0 0 0 0 0 0 0 0 0 127 0" result="hardAlpha"/>
<feMorphology radius="40" operator="dilate" in="SourceAlpha" result="effect1_dropShadow_10_42"/>
<feOffset/>
<feGaussianBlur stdDeviation="52"/>
<feComposite in2="hardAlpha" operator="out"/>
<feColorMatrix type="matrix" values="0 0 0 0 0.243137 0 0 0 0 0.0862745 0 0 0 0 0.478431 0 0 0 1 0"/>
<feBlend mode="normal" in2="BackgroundImageFix" result="effect1_dropShadow_10_42"/>
<feColorMatrix in="SourceAlpha" type="matrix" values="0 0 0 0 0 0 0 0 0 0 0 0 0 0 0 0 0 0 127 0" result="hardAlpha"/>
<feOffset dy="4"/>
<feGaussianBlur stdDeviation="2"/>
<feComposite in2="hardAlpha" operator="out"/>
<feColorMatrix type="matrix" values="0 0 0 0 0.47163 0 0 0 0 0.239247 0 0 0 0 0.847544 0 0 0 0.6 0"/>
<feBlend mode="normal" in2="effect1_dropShadow_10_42" result="effect2_dropShadow_10_42"/>
<feBlend mode="normal" in="BackgroundImageFix" in2="effect2_dropShadow_10_42" result="BackgroundImageFix"/>
<feBlend mode="normal" in="SourceGraphic" in2="BackgroundImageFix" result="shape"/>
</filter>
<radialGradient id="paint0_radial_10_42" cx="0" cy="0" r="1" gradientUnits="userSpaceOnUse" gradientTransform="translate(512 512) rotate(77.7761) scale(774.561)">
<stop stop-color="#3F1184"/>
<stop offset="1" stop-color="#0E041E"/>
</radialGradient>
<clipPath id="clip0_10_42">
<rect width="1024" height="1024" fill="white"/>
</clipPath>
</defs>
</svg>
