<svg width="1024" height="1024" viewBox="0 0 1024 1024" fill="none" xmlns="http://www.w3.org/2000/svg">
<g clip-path="url(#clip0_10_120)">
<mask id="path-1-inside-1_10_120" fill="white">
<path d="M853.901 134.77C735.538 16.4075 543.632 16.41 425.267 134.775C334.1 225.942 313.151 360.734 362.418 471.949L86.3329 780.403C80.3149 787.127 80.5981 797.381 86.9785 803.762L151.773 868.557C152.683 869.467 153.673 870.252 154.719 870.914L260.762 976.958C264.668 980.863 270.999 980.863 274.905 976.958L316.4 935.462C320.305 931.557 320.305 925.225 316.4 921.32L222.177 827.096L240.694 810.522L334.62 904.448C338.525 908.353 344.857 908.353 348.762 904.448L390.258 862.952C394.163 859.047 394.163 852.715 390.258 848.81L299.414 757.965L317.413 741.855L407.089 831.53C410.994 835.436 417.326 835.436 421.231 831.53L462.726 790.035C466.632 786.13 466.632 779.798 462.726 775.893L376.131 689.298L473.144 602.466C590.756 679.895 750.424 666.875 853.895 563.404C972.261 445.038 972.263 253.132 853.901 134.77ZM772.583 216.087C846.033 289.537 846.035 408.629 772.578 482.086C699.121 555.543 580.029 555.542 506.579 482.092C433.129 408.642 433.127 289.55 506.584 216.093C580.041 142.636 699.133 142.637 772.583 216.087Z"/>
</mask>
<path d="M853.901 134.77L904.105 84.5653L904.105 84.5653L853.901 134.77ZM425.267 134.775L375.062 84.5708L375.062 84.5708L425.267 134.775ZM362.418 471.949L427.334 443.192L445.91 485.126L415.322 519.301L362.418 471.949ZM86.3329 780.403L33.4292 733.051L33.4292 733.051L86.3329 780.403ZM86.9785 803.762L36.7739 853.967L36.7727 853.965L86.9785 803.762ZM154.719 870.914L192.662 810.903L199.338 815.124L204.923 820.709L154.719 870.914ZM260.762 976.958L210.559 1027.16L210.558 1027.16L260.762 976.958ZM274.905 976.958L325.109 1027.16L325.109 1027.16L274.905 976.958ZM316.4 935.462L366.605 985.667V985.667L316.4 935.462ZM316.4 921.32L366.605 871.115L366.605 871.116L316.4 921.32ZM222.177 827.096L171.972 877.301L118.911 824.239L174.825 774.193L222.177 827.096ZM240.694 810.522L193.342 757.619L243.397 712.816L290.899 760.318L240.694 810.522ZM334.62 904.448L284.417 954.655L284.415 954.653L334.62 904.448ZM348.762 904.448L398.967 954.653L398.965 954.654L348.762 904.448ZM390.258 862.952L440.464 913.155L440.463 913.156L390.258 862.952ZM390.258 848.81L440.463 798.605L440.465 798.607L390.258 848.81ZM299.414 757.965L249.209 808.17L196.147 755.107L252.063 705.061L299.414 757.965ZM317.413 741.855L270.062 688.951L320.117 644.15L367.618 691.65L317.413 741.855ZM407.089 831.53L356.884 881.735L356.884 881.735L407.089 831.53ZM421.231 831.53L371.026 781.326V781.326L421.231 831.53ZM462.726 790.035L512.931 840.239V840.239L462.726 790.035ZM462.726 775.893L412.522 826.097L412.522 826.097L462.726 775.893ZM376.131 689.298L325.927 739.502L272.865 686.44L328.78 636.394L376.131 689.298ZM473.144 602.466L425.792 549.563L466.525 513.104L512.185 543.164L473.144 602.466ZM853.895 563.404L904.1 613.608L904.1 613.608L853.895 563.404ZM772.583 216.087L822.788 165.883L822.788 165.883L772.583 216.087ZM772.578 482.086L822.783 532.291L822.782 532.291L772.578 482.086ZM506.579 482.092L456.374 532.296L456.374 532.296L506.579 482.092ZM506.584 216.093L456.38 165.888L456.38 165.888L506.584 216.093ZM853.901 134.77L803.696 184.974C713.062 94.3405 566.111 94.3405 475.472 184.98L425.267 134.775L375.062 84.5708C521.154 -61.5206 758.014 -61.5256 904.105 84.5653L853.901 134.77ZM425.267 134.775L475.472 184.98C405.74 254.712 389.557 357.913 427.334 443.192L362.418 471.949L297.502 500.705C236.746 363.554 262.461 197.172 375.062 84.5708L425.267 134.775ZM362.418 471.949L415.322 519.301L139.237 827.755L86.3329 780.403L33.4292 733.051L309.514 424.597L362.418 471.949ZM86.3329 780.403L139.237 827.755C158.351 806.4 157.453 773.829 137.184 753.559L86.9785 803.762L36.7727 853.965C3.74309 820.934 2.27875 767.854 33.4292 733.051L86.3329 780.403ZM86.9785 803.762L137.183 753.557L201.978 818.352L151.773 868.557L101.569 918.761L36.7739 853.967L86.9785 803.762ZM151.773 868.557L201.978 818.352C199.131 815.505 195.999 813.013 192.662 810.903L154.719 870.914L116.775 930.924C111.346 927.492 106.235 923.428 101.569 918.761L151.773 868.557ZM154.719 870.914L204.923 820.709L310.967 926.753L260.762 976.958L210.558 1027.16L104.514 921.118L154.719 870.914ZM260.762 976.958L310.966 926.752C287.145 902.932 248.523 902.93 224.7 926.753L274.905 976.958L325.109 1027.16C293.476 1058.8 242.19 1058.79 210.559 1027.16L260.762 976.958ZM274.905 976.958L224.7 926.753L266.196 885.257L316.4 935.462L366.605 985.667L325.109 1027.16L274.905 976.958ZM316.4 935.462L266.196 885.257C242.373 909.08 242.374 947.703 266.195 971.524L316.4 921.32L366.605 871.116C398.236 902.748 398.238 954.033 366.605 985.667L316.4 935.462ZM316.4 921.32L266.196 971.524L171.972 877.301L222.177 827.096L272.381 776.892L366.605 871.115L316.4 921.32ZM222.177 827.096L174.825 774.193L193.342 757.619L240.694 810.522L288.046 863.426L269.529 880L222.177 827.096ZM240.694 810.522L290.899 760.318L384.824 854.243L334.62 904.448L284.415 954.653L190.49 860.727L240.694 810.522ZM334.62 904.448L384.823 854.241C361.002 830.422 322.381 830.421 298.559 854.242L348.762 904.448L398.965 954.654C367.333 986.285 316.049 986.284 284.417 954.655L334.62 904.448ZM348.762 904.448L298.557 854.243L340.054 812.747L390.258 862.952L440.463 913.156L398.967 954.653L348.762 904.448ZM390.258 862.952L340.052 812.749C316.231 836.571 316.233 875.191 340.052 899.012L390.258 848.81L440.465 798.607C472.094 830.238 472.095 881.522 440.464 913.155L390.258 862.952ZM390.258 848.81L340.054 899.014L249.209 808.17L299.414 757.965L349.618 707.76L440.463 798.605L390.258 848.81ZM299.414 757.965L252.063 705.061L270.062 688.951L317.413 741.855L364.764 794.759L346.765 810.869L299.414 757.965ZM317.413 741.855L367.618 691.65L457.293 781.326L407.089 831.53L356.884 881.735L267.209 792.059L317.413 741.855ZM407.089 831.53L457.293 781.326C433.471 757.504 394.848 757.504 371.026 781.326L421.231 831.53L471.435 881.735C439.803 913.367 388.517 913.367 356.884 881.735L407.089 831.53ZM421.231 831.53L371.026 781.326L412.522 739.83L462.726 790.035L512.931 840.239L471.435 881.735L421.231 831.53ZM462.726 790.035L412.522 739.83C388.7 763.652 388.7 802.275 412.522 826.097L462.726 775.893L512.931 725.688C544.563 757.321 544.563 808.607 512.931 840.239L462.726 790.035ZM462.726 775.893L412.522 826.097L325.927 739.502L376.131 689.298L426.336 639.093L512.931 725.688L462.726 775.893ZM376.131 689.298L328.78 636.394L425.792 549.563L473.144 602.466L520.495 655.37L423.483 742.201L376.131 689.298ZM473.144 602.466L512.185 543.164C602.222 602.439 724.516 592.374 803.691 513.199L853.895 563.404L904.1 613.608C776.332 741.376 579.29 757.352 434.102 661.769L473.144 602.466ZM853.895 563.404L803.691 513.199C894.33 422.56 894.33 275.608 803.696 184.974L853.901 134.77L904.105 84.5653C1050.2 230.656 1050.19 467.517 904.1 613.608L853.895 563.404ZM772.583 216.087L822.788 165.883C923.966 267.061 923.966 431.107 822.783 532.291L772.578 482.086L722.373 431.882C768.104 386.151 768.101 312.014 722.379 266.292L772.583 216.087ZM772.578 482.086L822.782 532.291C721.599 633.474 557.552 633.475 456.374 532.296L506.579 482.092L556.783 431.887C602.505 477.609 676.642 477.613 722.373 431.882L772.578 482.086ZM506.579 482.092L456.374 532.296C355.196 431.118 355.196 267.072 456.38 165.888L506.584 216.093L556.789 266.297C511.058 312.028 511.061 386.165 556.783 431.887L506.579 482.092ZM506.584 216.093L456.38 165.888C557.563 64.7047 721.61 64.7042 822.788 165.883L772.583 216.087L722.379 266.292C676.657 220.57 602.52 220.566 556.789 266.297L506.584 216.093Z" fill="white" mask="url(#path-1-inside-1_10_120)"/>
<rect x="426.424" y="484.121" width="52.9205" height="402.469" transform="rotate(41.0718 426.424 484.121)" fill="white"/>
</g>
<defs>
<clipPath id="clip0_10_120">
<rect width="1024" height="1024" fill="white"/>
</clipPath>
</defs>
</svg>
